<svg xmlns="http://www.w3.org/2000/svg" xmlns:xlink="http://www.w3.org/1999/xlink" style="isolation:isolate" viewBox="0 0 20 20" version="1.1" shape-rendering="crispEdges" width="40" height="40"><path d="M8 15v1H4v1H3v3h14v-3h-1v-1h-4v-1h3v-1h1v-1h1v-3h1V7h-1V4h-1V3h-1V2H5v1H4v1H3v3H2v3h1v3h1v1h1v1h3z" fill="#EAC393"/><path d="M5 15v-1H4v-1H3v-3H2V7h1V4h1V3h1V2h10v1h1v1h1v3h1v3h-1v3h-1v1h-1v1H5z" fill="#FFF" fill-opacity=".1"/><path d="M5 7h3v2H5V7zm7 0h3v2h-3V7z" fill="#FFF"/><path d="M5 8h2v1H5V8zm7 0h2v1h-2V8z" fill="#5b7c8b"/><path d="M12 7V6h1V5h1v1h1v1h-1V6h-1v1h-1zM5 7V6h1V5h1v1h1v1H7V6H6v1H5z" fill-rule="evenodd" fill="#9e8f88"/><path d="M3 11v2h1v1h1v1h10v-1h1v-1h1v-2H3z" id="Path" fill="#b7a69e" fill-opacity="0.75"/><path d="M8 12v2h4v-2H8z" fill="#FFF"/><path d="M5 16H4v1H3v3h14v-3h-1v-1h-3v1H7v-1H5z" fill="#005b96"/><path d="M10 20v-1h3v1h-3z" fill="#FFF" fill-opacity=".5"/><path d="M5 16H4v1H3v3h1v-1h1v-3zm1 0h1v1h6v-1h1v2H6v-2zm9 0h1v1h1v3h-1v-1h-1v-3z" fill-rule="evenodd" fill="#FFF" fill-opacity=".8"/></svg>